<?xml version="1.0" standalone="no"?><!DOCTYPE svg PUBLIC "-//W3C//DTD SVG 1.1//EN" "http://www.w3.org/Graphics/SVG/1.1/DTD/svg11.dtd"><svg t="1508989420290" class="icon" style="" viewBox="0 0 1024 1024" version="1.1" xmlns="http://www.w3.org/2000/svg" p-id="1768" xmlns:xlink="http://www.w3.org/1999/xlink" width="200" height="200"><defs><style type="text/css"></style></defs><path d="M267.130435 66.782609A200.347826 200.347826 0 0 0 66.782609 267.130435v400.695652A155.826087 155.826087 0 0 0 222.608696 823.652174h150.572521a66.782609 66.782609 0 0 1 59.748174 36.953043l44.521739 89.043479a22.26087 22.26087 0 0 0 37.709913 3.383652L592.13913 850.365217a66.782609 66.782609 0 0 1 53.426087-26.713043H801.391304a155.826087 155.826087 0 0 0 155.826087-155.826087V267.130435A200.347826 200.347826 0 0 0 756.869565 66.782609H267.130435z m0-44.521739h489.73913A244.869565 244.869565 0 0 1 1001.73913 267.130435v400.695652a200.347826 200.347826 0 0 1-200.347826 200.347826h-155.826087a22.26087 22.26087 0 0 0-17.808695 8.904348l-77.022609 102.66713a66.782609 66.782609 0 0 1-113.085217-10.24l-44.521739-89.043478a22.26087 22.26087 0 0 0-19.94574-12.288H222.608696A200.347826 200.347826 0 0 1 22.26087 667.826087V267.130435A244.869565 244.869565 0 0 1 267.130435 22.26087z" p-id="1769"></path><path d="M467.478261 422.956522h89.043478v89.043478h-89.043478v-89.043478z m-222.608696 0h89.043478v89.043478h-89.043478v-89.043478z m445.217392 0h89.043478v89.043478h-89.043478v-89.043478z" p-id="1770"></path></svg>