<?xml version="1.0" standalone="no"?><!DOCTYPE svg PUBLIC "-//W3C//DTD SVG 1.1//EN" "http://www.w3.org/Graphics/SVG/1.1/DTD/svg11.dtd"><svg t="1508987798755" class="icon" style="" viewBox="0 0 1024 1024" version="1.1" xmlns="http://www.w3.org/2000/svg" p-id="1023" xmlns:xlink="http://www.w3.org/1999/xlink" width="200" height="200"><defs><style type="text/css"></style></defs><path d="M515.456 318.208c-104.256 0-188.8 85.12-188.8 189.952 0 104.96 84.48 189.952 188.8 189.952 104.32 0 188.8-84.992 188.8-189.952C704.256 403.328 619.776 318.208 515.456 318.208zM515.456 634.88c-69.376 0-127.296-58.24-127.296-128.064 0-69.824 56.512-126.656 125.888-126.656 69.504 0 125.952 56.832 125.952 126.656C639.936 576.64 584.896 634.88 515.456 634.88z" p-id="1024"></path><path d="M1015.232 499.456c-0.448-1.6-0.192-3.328-0.704-4.864-0.192-0.64-0.64-1.024-0.896-1.6-0.384-0.896-0.256-1.984-0.704-2.816-91.52-210.816-288.768-332.16-499.008-332.16-210.176 0-411.392 121.152-502.976 331.968-0.384 0.896-0.32 1.792-0.64 2.752-0.192 0.64-0.64 1.024-0.832 1.536-0.512 1.6-0.32 3.264-0.64 4.864C8.32 502.016 7.808 504.768 7.808 507.648c0 2.88 0.512 5.568 1.088 8.448 0.32 1.6 0.128 3.328 0.64 4.864 0.192 0.704 0.64 1.024 0.832 1.664 0.32 0.832 0.256 1.92 0.64 2.752C102.592 736.384 301.824 855.744 512 855.744c210.24 0 409.472-119.104 500.992-330.048 0.448-0.896 0.32-1.856 0.704-2.88 0.256-0.512 0.704-0.96 0.896-1.536 0.512-1.472 0.256-3.264 0.704-4.8 0.512-2.88 1.024-5.632 1.024-8.576C1016.256 505.024 1015.744 502.336 1015.232 499.456zM512 792.384c-178.24 0-353.728-94.656-440-284.736 85.44-189.376 263.232-286.4 441.92-286.4 178.688 0 352.576 97.088 438.016 286.656C866.56 697.28 690.752 792.384 512 792.384z" p-id="1025"></path></svg>