<?xml version="1.0" standalone="no"?><!DOCTYPE svg PUBLIC "-//W3C//DTD SVG 1.1//EN" "http://www.w3.org/Graphics/SVG/1.1/DTD/svg11.dtd"><svg t="1508989365851" class="icon" style="" viewBox="0 0 1024 1024" version="1.1" xmlns="http://www.w3.org/2000/svg" p-id="1074" xmlns:xlink="http://www.w3.org/1999/xlink" width="200" height="200"><defs><style type="text/css"></style></defs><path d="M727.5 959.6H413.7c-20.6 0-37.3-17-37.3-38s16.7-38 37.3-38h313.8c2.3 0 5.6-0.5 9.2-2.9 3.4-2.3 5.1-5.4 5.8-7.6l135.4-313.4c8.6-19.6 6.8-42-4.7-59.8-11.5-17.9-30.8-28.6-51.8-28.6l-197-0.1c-16.5 0-30.9-10.9-35.7-27-4.6-16 1.5-33.3 15.2-42.5 32-21.5 63.1-139.7 37.5-218.2-14.4-44.4-37.5-43.1-47.5-42.5l-10.9 0.1c-14.6 0-28.3 5.8-38.7 16.3-10.3 10.5-15.9 24.6-15.9 39.5v51.8c0 60.3-23.1 117.1-64.9 159.7-37 37.8-85 60.6-136.5 65.2v412.3c0 19.7-7.5 38.2-21.2 52.1-13.7 14-31.9 21.7-51.1 21.7H134.5c-18.6 0-36.1-7.4-49.1-20.8-13.1-13.4-20.3-31.2-20.3-50V476.1c0-20.6 7.9-40.2 22.2-54.8 14.5-14.7 33.5-22.7 53.8-22.7H307c39.3 0 76.2-15.6 104-44 27.6-28.3 43-66 43-106.1v-51.8c0-35.3 13.4-68.3 37.8-93.1C516.3 78.7 548.6 65 583.1 65h8.7c55.3-3.2 99.6 31.1 120.3 94.4 21.4 65.9 15.4 165.4-15.1 235.9h124.5c46.2 0.1 88.9 23.6 114.1 63 25.2 39.5 29.2 88.8 10.6 131.8l-134.8 312c-6.1 15.8-17.6 30.5-32.7 41.1-15.3 10.8-33 16.4-51.2 16.4z m-588.1-75.9h113V474.4H141.1l-1.7 409.3z" fill="" p-id="1075"></path></svg>